<svg width="24" height="24" viewBox="0 0 24 24" fill="none" xmlns="http://www.w3.org/2000/svg">
<g clip-path="url(#clip0_26_1324)">
<path d="M24 12C24 5.37258 18.6274 0 12 0C5.37258 0 0 5.37258 0 12C0 18.6274 5.37258 24 12 24C18.6274 24 24 18.6274 24 12Z" fill="#141414"/>
<path d="M13.0301 9.5V14.5H11.3967V10.1467L11.7101 10.1867L10.0301 14.5H8.33008L6.65008 10.2067L6.96341 10.16V14.5H5.33008V9.5H7.99008L9.48341 13.5733H8.89008L10.3701 9.5H13.0301Z" fill="white"/>
<path d="M16.746 9.5C17.1993 9.5 17.586 9.57556 17.906 9.72667C18.2305 9.87333 18.4771 10.0844 18.646 10.36C18.8149 10.6311 18.8993 10.9511 18.8993 11.32C18.8993 11.6889 18.8149 12.0111 18.646 12.2867C18.4771 12.5578 18.2305 12.7689 17.906 12.92C17.586 13.0667 17.1993 13.14 16.746 13.14H14.6327V11.8H16.6327C16.8016 11.8 16.9327 11.7578 17.026 11.6733C17.1193 11.5889 17.166 11.4711 17.166 11.32C17.166 11.1644 17.1193 11.0467 17.026 10.9667C16.9327 10.8822 16.8016 10.84 16.6327 10.84H14.7793L15.5527 10.0667V14.5H13.8327V9.5H16.746Z" fill="white"/>
</g>
<defs>
<clipPath id="clip0_26_1324">
<rect width="24" height="24" fill="white"/>
</clipPath>
</defs>
</svg>
