<svg width="38" height="38" viewBox="0 0 38 38" fill="none" xmlns="http://www.w3.org/2000/svg">
<path d="M12.8901 20.3883L18.5322 25.5706C18.6539 25.6824 18.7148 25.7383 18.7792 25.7701C18.9185 25.8387 19.0819 25.8387 19.2212 25.7701C19.2856 25.7383 19.3465 25.6824 19.4682 25.5706L25.1103 20.3883C26.739 18.8923 26.9357 16.3923 25.5611 14.66L25.3577 14.4036C23.7375 12.3618 20.5416 12.7094 19.3982 15.0518C19.2364 15.3833 18.764 15.3833 18.6022 15.0518C17.4588 12.7094 14.2629 12.3618 12.6427 14.4036L12.4393 14.66C11.0647 16.3923 11.2614 18.8923 12.8901 20.3883Z" stroke="#939393" stroke-width="1.5"/>
</svg>
