<svg width="20" height="20" viewBox="0 0 20 20" fill="none" xmlns="http://www.w3.org/2000/svg">
<g clip-path="url(#clip0_728_1106)">
<path fill-rule="evenodd" clip-rule="evenodd" d="M7 3C4.79086 3 3 4.79086 3 7V13C3 15.2091 4.79086 17 7 17H13C15.2091 17 17 15.2091 17 13V7C17 4.79086 15.2091 3 13 3H7ZM13.9987 6.99997C14.551 6.99997 14.9987 6.55225 14.9987 5.99997C14.9987 5.44768 14.551 4.99997 13.9987 4.99997C13.4464 4.99997 12.9987 5.44768 12.9987 5.99997C12.9987 6.55225 13.4464 6.99997 13.9987 6.99997ZM9.9987 13.999C12.2078 13.999 13.9987 12.2081 13.9987 9.99899C13.9987 7.78985 12.2078 5.99899 9.9987 5.99899C7.78956 5.99899 5.9987 7.78985 5.9987 9.99899C5.9987 12.2081 7.78956 13.999 9.9987 13.999ZM9.9987 12.5691C8.57926 12.5691 7.42859 11.4184 7.42859 9.99899C7.42859 8.57956 8.57926 7.42888 9.9987 7.42888C11.4181 7.42888 12.5688 8.57956 12.5688 9.99899C12.5688 11.4184 11.4181 12.5691 9.9987 12.5691Z" fill="#141414"/>
</g>
<defs>
<clipPath id="clip0_728_1106">
<rect width="14" height="14" fill="white" transform="translate(3 3)"/>
</clipPath>
</defs>
</svg>
