<svg width="309" height="38" viewBox="0 0 309 38" fill="none" xmlns="http://www.w3.org/2000/svg">
<path d="M52.9742 0.777344V37.2224H43.4524V4.37325L45.5791 4.61622L31.5622 37.2224H21.412L7.34679 4.71341L9.52183 4.47044V37.2224H0V0.777344H15.4669L28.4688 32.0715H24.6021L37.5073 0.777344H52.9742Z" fill="black"/>
<path d="M80.1056 0.777344C83.1345 0.777344 85.7446 1.29567 87.9357 2.33233C90.1591 3.36899 91.8508 4.84299 93.0108 6.75433C94.1708 8.63327 94.7508 10.8362 94.7508 13.363C94.7508 15.8575 94.1708 18.0604 93.0108 19.9717C91.8508 21.8507 90.1591 23.3085 87.9357 24.3451C85.7446 25.3818 83.1345 25.9001 80.1056 25.9001H64.397V17.8336H79.4772C81.0884 17.8336 82.3451 17.4449 83.2473 16.6674C84.1495 15.8575 84.6007 14.756 84.6007 13.363C84.6007 11.9376 84.1495 10.8362 83.2473 10.0587C82.3451 9.24879 81.0884 8.84384 79.4772 8.84384H65.267L69.7621 4.17888V37.2224H59.7569V0.777344H80.1056Z" fill="black"/>
<path d="M125.823 9.45473C125.823 14.2471 121.959 18.1321 117.192 18.1321C112.425 18.1321 108.561 14.2471 108.561 9.45473C108.561 4.66234 112.425 0.777344 117.192 0.777344C121.959 0.777344 125.823 4.66234 125.823 9.45473Z" fill="#1B9DD9"/>
<path d="M125.823 28.5455C125.823 33.3379 121.959 37.2229 117.192 37.2229C112.425 37.2229 108.561 33.3379 108.561 28.5455C108.561 23.7531 112.425 19.8681 117.192 19.8681C121.959 19.8681 125.823 23.7531 125.823 28.5455Z" fill="#E6352B"/>
<path d="M139.633 25.2685H149.831C149.992 26.2728 150.46 27.1475 151.233 27.8926C152.006 28.6377 153.037 29.2208 154.326 29.6419C155.648 30.0307 157.194 30.2251 158.966 30.2251C161.415 30.2251 163.349 29.9173 164.767 29.3018C166.184 28.6539 166.893 27.7144 166.893 26.4834C166.893 25.5439 166.491 24.815 165.685 24.2967C164.879 23.7783 163.333 23.4058 161.045 23.179L154.278 22.5473C149.284 22.0938 145.658 20.9599 143.403 19.1458C141.147 17.2992 140.019 14.821 140.019 11.711C140.019 9.18414 140.744 7.04604 142.195 5.29668C143.677 3.54732 145.739 2.23529 148.381 1.36061C151.056 0.453538 154.165 0 157.71 0C161.19 0 164.283 0.502132 166.99 1.50639C169.697 2.47826 171.839 3.87127 173.418 5.68542C175.03 7.49957 175.9 9.60528 176.028 12.0026H165.878C165.749 11.1279 165.33 10.3828 164.622 9.76726C163.945 9.11935 163.01 8.63342 161.818 8.30946C160.626 7.95311 159.192 7.77494 157.516 7.77494C155.261 7.77494 153.472 8.0827 152.151 8.69821C150.83 9.28133 150.17 10.156 150.17 11.3222C150.17 12.1645 150.556 12.8448 151.33 13.3632C152.135 13.8815 153.569 14.2379 155.631 14.4322L162.833 15.1611C166.281 15.4851 169.036 16.052 171.098 16.8619C173.161 17.6394 174.659 18.7246 175.593 20.1176C176.528 21.5107 176.995 23.2438 176.995 25.3171C176.995 27.8764 176.238 30.1117 174.723 32.023C173.209 33.902 171.082 35.376 168.343 36.445C165.604 37.4817 162.414 38 158.773 38C155.035 38 151.732 37.4817 148.865 36.445C146.029 35.376 143.806 33.8858 142.195 31.9744C140.583 30.0307 139.729 27.7954 139.633 25.2685Z" fill="black"/>
<path d="M182.011 0.777492H192.016V37.2225H182.011V0.777492ZM210.528 0.777492H220.582V37.2225H210.528V0.777492ZM187.618 14.2379H214.685V23.179H187.618V14.2379Z" fill="black"/>
<path d="M247.285 38C242.999 38 239.229 37.2063 235.975 35.6189C232.753 34.0315 230.239 31.8124 228.435 28.9616C226.663 26.1108 225.776 22.7903 225.776 19C225.776 15.2097 226.663 11.8892 228.435 9.03836C230.239 6.18755 232.753 3.96846 235.975 2.38108C239.229 0.793692 242.999 0 247.285 0C251.603 0 255.373 0.793692 258.595 2.38108C261.818 3.96846 264.331 6.18755 266.135 9.03836C267.94 11.8892 268.842 15.2097 268.842 19C268.842 22.7903 267.94 26.1108 266.135 28.9616C264.331 31.8124 261.818 34.0315 258.595 35.6189C255.373 37.2063 251.603 38 247.285 38ZM247.285 29.0102C249.637 29.0102 251.667 28.6053 253.375 27.7954C255.083 26.9855 256.388 25.8355 257.29 24.3453C258.225 22.8551 258.692 21.0733 258.692 19C258.692 16.9267 258.225 15.1449 257.29 13.6547C256.388 12.1645 255.083 11.0145 253.375 10.2046C251.667 9.39471 249.637 8.98977 247.285 8.98977C244.965 8.98977 242.951 9.39471 241.243 10.2046C239.536 11.0145 238.214 12.1645 237.28 13.6547C236.345 15.1449 235.878 16.9267 235.878 19C235.878 21.0733 236.345 22.8551 237.28 24.3453C238.214 25.8355 239.536 26.9855 241.243 27.7954C242.951 28.6053 244.965 29.0102 247.285 29.0102Z" fill="black"/>
<path d="M294.355 0.777492C297.384 0.777492 299.994 1.29582 302.185 2.33248C304.409 3.36914 306.1 4.84314 307.26 6.75448C308.42 8.63342 309 10.8363 309 13.3632C309 15.8576 308.42 18.0605 307.26 19.9719C306.1 21.8508 304.409 23.3086 302.185 24.3453C299.994 25.3819 297.384 25.9003 294.355 25.9003H278.646V17.8338H293.727C295.338 17.8338 296.594 17.445 297.497 16.6675C298.399 15.8576 298.85 14.7562 298.85 13.3632C298.85 11.9378 298.399 10.8363 297.497 10.0588C296.594 9.24893 295.338 8.84399 293.727 8.84399H279.516L284.012 4.17903V37.2225H274.006V0.777492H294.355Z" fill="black"/>
</svg>
