<svg width="133" height="18" viewBox="0 0 133 18" fill="none" xmlns="http://www.w3.org/2000/svg">
<path d="M22.6714 1.24219V16.7564H18.5964V2.77292L19.5065 2.87635L13.5077 16.7564H9.16373L3.14422 2.91772L4.07507 2.8143V16.7564H0V1.24219H6.6194L12.1838 14.5637H10.529L16.052 1.24219H22.6714Z" fill="black"/>
<path d="M34.2829 1.24219C35.5792 1.24219 36.6962 1.46283 37.6339 1.90413C38.5855 2.34542 39.3095 2.97289 39.8059 3.78652C40.3024 4.58636 40.5506 5.52411 40.5506 6.59977C40.5506 7.66163 40.3024 8.59938 39.8059 9.41301C39.3095 10.2129 38.5855 10.8334 37.6339 11.2747C36.6962 11.716 35.5792 11.9367 34.2829 11.9367H27.56V8.50284H34.014C34.7035 8.50284 35.2413 8.33736 35.6274 8.00639C36.0136 7.66163 36.2066 7.19275 36.2066 6.59977C36.2066 5.99299 36.0136 5.52411 35.6274 5.19314C35.2413 4.84838 34.7035 4.676 34.014 4.676H27.9324L29.8561 2.69018V16.7564H25.5742V1.24219H34.2829Z" fill="black"/>
<path d="M53.8487 4.93605C53.8487 6.97611 52.1949 8.62991 50.1548 8.62991C48.1147 8.62991 46.4609 6.97611 46.4609 4.93605C46.4609 2.89599 48.1147 1.24219 50.1548 1.24219C52.1949 1.24219 53.8487 2.89599 53.8487 4.93605Z" fill="#1B9DD9"/>
<path d="M53.8487 13.0628C53.8487 15.1028 52.1949 16.7566 50.1548 16.7566C48.1148 16.7566 46.461 15.1028 46.461 13.0628C46.461 11.0227 48.1148 9.3689 50.1548 9.3689C52.1949 9.3689 53.8487 11.0227 53.8487 13.0628Z" fill="#E6352B"/>
<path d="M59.7588 11.6686H64.1235C64.1924 12.0961 64.3924 12.4685 64.7233 12.7857C65.0543 13.1028 65.4956 13.3511 66.0472 13.5303C66.6126 13.6958 67.2746 13.7786 68.033 13.7786C69.0811 13.7786 69.9085 13.6476 70.5153 13.3855C71.1221 13.1097 71.4255 12.7098 71.4255 12.1858C71.4255 11.7859 71.2531 11.4756 70.9083 11.2549C70.5636 11.0343 69.9016 10.8757 68.9225 10.7792L66.0265 10.5102C63.889 10.3172 62.3376 9.83451 61.3723 9.06225C60.4069 8.27619 59.9243 7.22123 59.9243 5.89735C59.9243 4.82169 60.2346 3.91153 60.8551 3.16684C61.4895 2.42216 62.3721 1.86365 63.5029 1.49131C64.6475 1.10518 65.9783 0.912109 67.4952 0.912109C68.9846 0.912109 70.3085 1.12586 71.4669 1.55336C72.6252 1.96708 73.5423 2.56006 74.218 3.33233C74.9076 4.10459 75.2799 5.00097 75.3351 6.02146H70.9911C70.9359 5.64912 70.7566 5.33194 70.4533 5.06992C70.1637 4.79411 69.7637 4.58726 69.2535 4.44935C68.7432 4.29766 68.1296 4.22181 67.4125 4.22181C66.4471 4.22181 65.6818 4.35282 65.1164 4.61484C64.551 4.86306 64.2683 5.23541 64.2683 5.73186C64.2683 6.09041 64.4337 6.38001 64.7647 6.60066C65.1095 6.8213 65.7231 6.973 66.6057 7.05574L69.6879 7.36602C71.1635 7.50393 72.3425 7.74526 73.2251 8.09002C74.1077 8.42099 74.749 8.88297 75.1489 9.47596C75.5488 10.0689 75.7488 10.8067 75.7488 11.6893C75.7488 12.7788 75.4247 13.7303 74.7766 14.5439C74.1284 15.3438 73.2182 15.9712 72.0461 16.4263C70.8739 16.8676 69.5086 17.0883 67.9503 17.0883C66.3506 17.0883 64.9371 16.8676 63.7097 16.4263C62.4962 15.9712 61.5446 15.3369 60.8551 14.5233C60.1656 13.6958 59.8002 12.7443 59.7588 11.6686Z" fill="black"/>
<path d="M77.8954 1.24308H82.1773V16.7573H77.8954V1.24308ZM90.0999 1.24308H94.4025V16.7573H90.0999V1.24308ZM80.2949 6.973H91.8789V10.7792H80.2949V6.973Z" fill="black"/>
<path d="M105.831 17.0883C103.997 17.0883 102.383 16.7504 100.99 16.0747C99.6114 15.3989 98.5357 14.4543 97.7635 13.2407C97.005 12.0272 96.6257 10.6137 96.6257 9.00019C96.6257 7.38671 97.005 5.97319 97.7635 4.75964C98.5357 3.54608 99.6114 2.60144 100.99 1.92571C102.383 1.24997 103.997 0.912109 105.831 0.912109C107.679 0.912109 109.292 1.24997 110.671 1.92571C112.05 2.60144 113.126 3.54608 113.898 4.75964C114.671 5.97319 115.057 7.38671 115.057 9.00019C115.057 10.6137 114.671 12.0272 113.898 13.2407C113.126 14.4543 112.05 15.3989 110.671 16.0747C109.292 16.7504 107.679 17.0883 105.831 17.0883ZM105.831 13.2614C106.838 13.2614 107.706 13.089 108.437 12.7443C109.168 12.3995 109.727 11.91 110.113 11.2756C110.513 10.6412 110.713 9.88278 110.713 9.00019C110.713 8.1176 110.513 7.35913 110.113 6.72477C109.727 6.09041 109.168 5.60085 108.437 5.25609C107.706 4.91133 106.838 4.73895 105.831 4.73895C104.838 4.73895 103.976 4.91133 103.245 5.25609C102.514 5.60085 101.949 6.09041 101.549 6.72477C101.149 7.35913 100.949 8.1176 100.949 9.00019C100.949 9.88278 101.149 10.6412 101.549 11.2756C101.949 11.91 102.514 12.3995 103.245 12.7443C103.976 13.089 104.838 13.2614 105.831 13.2614Z" fill="black"/>
<path d="M125.975 1.24308C127.272 1.24308 128.389 1.46373 129.326 1.90502C130.278 2.34631 131.002 2.97378 131.498 3.78741C131.995 4.58726 132.243 5.525 132.243 6.60066C132.243 7.66252 131.995 8.60027 131.498 9.4139C131.002 10.2137 130.278 10.8343 129.326 11.2756C128.389 11.7169 127.272 11.9375 125.975 11.9375H119.253V8.50373H125.706C126.396 8.50373 126.934 8.33825 127.32 8.00728C127.706 7.66252 127.899 7.19364 127.899 6.60066C127.899 5.99388 127.706 5.525 127.32 5.19403C126.934 4.84927 126.396 4.67689 125.706 4.67689H119.625L121.549 2.69107V16.7573H117.267V1.24308H125.975Z" fill="black"/>
</svg>
