<svg width="20" height="20" viewBox="0 0 20 20" fill="none" xmlns="http://www.w3.org/2000/svg">
<path d="M17.3337 5.42342C16.7943 5.66396 16.2149 5.82649 15.6058 5.89995C16.2343 5.52145 16.7045 4.92574 16.9287 4.22397C16.3382 4.57697 15.6919 4.82545 15.018 4.95859C14.5648 4.47158 13.9645 4.14877 13.3103 4.0403C12.6562 3.93183 11.9847 4.04376 11.4002 4.35871C10.8157 4.67366 10.3509 5.17401 10.0779 5.78209C9.80495 6.39016 9.73907 7.07193 9.89052 7.72154C8.69404 7.66108 7.52356 7.34809 6.45505 6.80288C5.38653 6.25767 4.44386 5.49244 3.68822 4.55683C3.42984 5.0054 3.28128 5.52549 3.28128 6.07938C3.28099 6.578 3.403 7.069 3.63647 7.50879C3.86994 7.94858 4.20766 8.32357 4.61966 8.60049C4.14185 8.58519 3.67457 8.45524 3.25673 8.22148V8.26048C3.25669 8.95983 3.49704 9.63765 3.93702 10.1789C4.37701 10.7202 4.98951 11.0916 5.6706 11.2302C5.22735 11.3509 4.76263 11.3687 4.31155 11.2822C4.50372 11.8839 4.87804 12.4101 5.38211 12.7871C5.88618 13.1641 6.49477 13.373 7.12267 13.3846C6.05677 14.2268 4.74038 14.6836 3.38528 14.6816C3.14523 14.6816 2.90539 14.6675 2.66699 14.6393C4.0425 15.5294 5.64369 16.0018 7.27899 16C12.8147 16 15.8409 11.3855 15.8409 7.38349C15.8409 7.25347 15.8377 7.12215 15.8319 6.99213C16.4205 6.56369 16.9286 6.03315 17.3324 5.42537L17.3337 5.42342Z" fill="#141414"/>
</svg>
