<svg width="20" height="20" viewBox="0 0 20 20" fill="none" xmlns="http://www.w3.org/2000/svg">
<path fill-rule="evenodd" clip-rule="evenodd" d="M17.6355 5.67996C17.7453 5.28915 17.6355 5.00195 17.1068 5.00195H15.3575C14.9118 5.00195 14.707 5.24871 14.5968 5.52364C14.5968 5.52364 13.7059 7.80714 12.4462 9.28812C12.0396 9.7162 11.8521 9.85389 11.6295 9.85389C11.5198 9.85389 11.3505 9.7162 11.3505 9.32584V5.67996C11.3505 5.21099 11.2256 5.00195 10.8573 5.00195H8.10687C7.82783 5.00195 7.66121 5.22053 7.66121 5.42366C7.66121 5.86719 8.29127 5.97034 8.35659 7.22002V9.93205C8.35659 10.5255 8.25528 10.6346 8.03267 10.6346C7.4386 10.6346 5.99497 8.34155 5.13964 5.71722C4.96724 5.20826 4.79795 5.00195 4.34962 5.00195H2.59985C2.10086 5.00195 2 5.24871 2 5.52364C2 6.01078 2.59407 8.43243 4.76507 11.6316C6.21181 13.8151 8.2495 14.9994 10.1028 14.9994C11.2167 14.9994 11.3531 14.7367 11.3531 14.2841C11.3531 12.1969 11.2523 12.0002 11.8108 12.0002C12.069 12.0002 12.5146 12.1374 13.5544 13.1903C14.7425 14.44 14.9384 14.9994 15.6036 14.9994H17.3534C17.8524 14.9994 18.1047 14.7367 17.959 14.2182C17.6266 13.128 15.3779 10.8845 15.277 10.7346C15.0184 10.3847 15.0926 10.2283 15.277 9.91614C15.2801 9.91296 17.4156 6.7515 17.6355 5.67996Z" fill="#141414"/>
</svg>
